REM Generated by IcecastMetadataRecorder
REM 2020-07-29T21:16:11.222Z
TITLE "isics-all"
FILE "isics-all.mp3" WAVE
  TRACK 1 AUDIO
    TITLE "2020-07-29T21:29:12.438Z TO:24631 Dallas County Fire/EMS Operations FROM:2559984"
    INDEX 01 13:01:16
  TRACK 2 AUDIO
    TITLE "2020-07-29T21:29:15.222Z TO:5002 Department of Public Safety - Area A Law 2A - DPS District #1 FROM:UNKNOWN"
    INDEX 01 13:04:00
  TRACK 3 AUDIO
    TITLE "2020-07-29T21:29:18.742Z TO:177 Polk County - Westcom Fire 2 FROM:1007"
    INDEX 01 13:07:38
  TRACK 4 AUDIO
    TITLE "2020-07-29T21:29:20.822Z TO:24631 Dallas County Fire/EMS Operations FROM:UNKNOWN"
    INDEX 01 13:09:44
  TRACK 5 AUDIO
    TITLE "2020-07-29T21:29:22.934Z TO:177 Polk County - Westcom Fire 2 FROM:1727"
    INDEX 01 13:11:53
  TRACK 6 AUDIO
    TITLE "2020-07-29T21:29:26.422Z TO:7300 Department of Transportation - District 1 Highway Helper - Des Moines Area FROM:14950"
    INDEX 01 13:15:15
  TRACK 7 AUDIO
    TITLE "2020-07-29T21:29:35.542Z TO:177 Polk County - Westcom Fire 2 FROM:1007"
    INDEX 01 13:24:24
  TRACK 8 AUDIO
    TITLE "2020-07-29T21:29:37.622Z TO:7300 Department of Transportation - District 1 Highway Helper - Des Moines Area FROM:14966"
    INDEX 01 13:26:30
  TRACK 9 AUDIO
    TITLE "2020-07-29T21:29:39.734Z TO:24631 Dallas County Fire/EMS Operations FROM:2559984"
    INDEX 01 13:28:38
  TRACK 10 AUDIO
    TITLE "END"
    INDEX 01 13:32:52